<?xml version="1.0" encoding="UTF-8" standalone="no"?>
<!DOCTYPE svg PUBLIC "-//W3C//DTD SVG 1.1//EN" "http://www.w3.org/Graphics/SVG/1.1/DTD/svg11.dtd">
<svg xmlns="http://www.w3.org/2000/svg" version="1.1" viewBox="0.00 0.00 447.00 436.00">
<g stroke-width="2.00" fill="none" stroke-linecap="butt">
<path stroke="#80857c" vector-effect="non-scaling-stroke" d="
  M 113.76 52.95
  C 92.01 53.42 74.04 70.50 70.01 91.32
  Q 68.97 96.65 68.99 111.25
  Q 69.09 219.37 68.91 327.49
  C 68.89 339.76 68.78 347.87 72.52 357.22
  C 78.07 371.11 90.08 381.77 105.00 384.99
  Q 108.55 385.76 110.25 385.76
  Q 223.79 385.69 337.33 385.78
  Q 344.13 385.78 348.54 384.56
  C 365.16 379.96 376.90 366.57 380.88 350.01
  Q 382.25 344.35 382.25 333.88
  Q 382.31 220.23 382.25 106.59
  Q 382.25 95.68 380.87 90.03
  C 376.76 73.26 363.62 58.58 346.62 54.17
  Q 340.90 52.68 327.75 52.70
  Q 241.38 52.82 155.00 52.57
  Q 134.37 52.51 113.76 52.95"
/>
<path stroke="#80857c" vector-effect="non-scaling-stroke" d="
  M 125.69 97.69
  C 114.28 103.14 111.25 112.40 111.25 124.25
  Q 111.26 221.00 111.19 317.75
  C 111.18 328.07 116.61 338.01 126.48 341.47
  Q 130.13 342.75 137.68 342.75
  Q 225.12 342.80 312.56 342.78
  Q 319.43 342.77 323.26 341.46
  C 332.89 338.15 339.41 328.96 339.47 319.00
  Q 339.91 239.40 339.53 126.45
  Q 339.50 116.97 338.63 113.62
  C 336.00 103.46 325.20 95.42 315.25 95.41
  Q 228.25 95.34 141.25 95.44
  C 135.66 95.45 130.91 95.20 125.69 97.69"
/>
<path stroke="#80857c" vector-effect="non-scaling-stroke" d="
  M 196.16 196.67
  Q 196.29 176.57 196.28 155.94
  Q 196.28 148.17 194.87 144.25
  C 186.25 120.19 150.80 126.92 150.61 153.00
  Q 150.22 206.61 150.72 283.20
  C 150.78 291.62 152.04 298.54 158.07 303.69
  C 169.01 313.03 184.49 310.89 192.12 299.15
  Q 196.20 292.88 196.23 284.25
  Q 196.29 262.37 196.18 240.60
  A 0.42 0.42 0.0 0 1 196.89 240.30
  C 216.95 259.66 236.51 279.56 256.24 299.25
  Q 261.58 304.58 265.58 306.68
  C 280.58 314.54 296.60 305.59 299.15 289.48
  C 300.99 277.88 294.53 271.77 287.02 264.22
  Q 264.47 241.55 242.20 219.37
  Q 241.43 218.61 242.20 217.84
  Q 266.74 193.38 290.84 169.59
  C 297.01 163.50 300.42 158.11 299.16 149.30
  C 297.39 136.91 285.62 128.61 273.47 129.37
  Q 263.46 129.99 256.05 137.56
  Q 227.05 167.16 197.06 197.05
  Q 196.15 197.95 196.16 196.67"
/>
</g>
<path fill="#ffe8c6" d="
  M 0.00 0.00
  L 447.00 0.00
  L 447.00 436.00
  L 0.00 436.00
  L 0.00 0.00
  Z
  M 113.76 52.95
  C 92.01 53.42 74.04 70.50 70.01 91.32
  Q 68.97 96.65 68.99 111.25
  Q 69.09 219.37 68.91 327.49
  C 68.89 339.76 68.78 347.87 72.52 357.22
  C 78.07 371.11 90.08 381.77 105.00 384.99
  Q 108.55 385.76 110.25 385.76
  Q 223.79 385.69 337.33 385.78
  Q 344.13 385.78 348.54 384.56
  C 365.16 379.96 376.90 366.57 380.88 350.01
  Q 382.25 344.35 382.25 333.88
  Q 382.31 220.23 382.25 106.59
  Q 382.25 95.68 380.87 90.03
  C 376.76 73.26 363.62 58.58 346.62 54.17
  Q 340.90 52.68 327.75 52.70
  Q 241.38 52.82 155.00 52.57
  Q 134.37 52.51 113.76 52.95
  Z"
/>
<path fill="#002131" d="
  M 70.01 91.32
  C 74.04 70.50 92.01 53.42 113.76 52.95
  Q 134.37 52.51 155.00 52.57
  Q 241.38 52.82 327.75 52.70
  Q 340.90 52.68 346.62 54.17
  C 363.62 58.58 376.76 73.26 380.87 90.03
  Q 382.25 95.68 382.25 106.59
  Q 382.31 220.23 382.25 333.88
  Q 382.25 344.35 380.88 350.01
  C 376.90 366.57 365.16 379.96 348.54 384.56
  Q 344.13 385.78 337.33 385.78
  Q 223.79 385.69 110.25 385.76
  Q 108.55 385.76 105.00 384.99
  C 90.08 381.77 78.07 371.11 72.52 357.22
  C 68.78 347.87 68.89 339.76 68.91 327.49
  Q 69.09 219.37 68.99 111.25
  Q 68.97 96.65 70.01 91.32
  Z
  M 125.69 97.69
  C 114.28 103.14 111.25 112.40 111.25 124.25
  Q 111.26 221.00 111.19 317.75
  C 111.18 328.07 116.61 338.01 126.48 341.47
  Q 130.13 342.75 137.68 342.75
  Q 225.12 342.80 312.56 342.78
  Q 319.43 342.77 323.26 341.46
  C 332.89 338.15 339.41 328.96 339.47 319.00
  Q 339.91 239.40 339.53 126.45
  Q 339.50 116.97 338.63 113.62
  C 336.00 103.46 325.20 95.42 315.25 95.41
  Q 228.25 95.34 141.25 95.44
  C 135.66 95.45 130.91 95.20 125.69 97.69
  Z"
/>
<path fill="#ffe8c6" d="
  M 125.69 97.69
  C 130.91 95.20 135.66 95.45 141.25 95.44
  Q 228.25 95.34 315.25 95.41
  C 325.20 95.42 336.00 103.46 338.63 113.62
  Q 339.50 116.97 339.53 126.45
  Q 339.91 239.40 339.47 319.00
  C 339.41 328.96 332.89 338.15 323.26 341.46
  Q 319.43 342.77 312.56 342.78
  Q 225.12 342.80 137.68 342.75
  Q 130.13 342.75 126.48 341.47
  C 116.61 338.01 111.18 328.07 111.19 317.75
  Q 111.26 221.00 111.25 124.25
  C 111.25 112.40 114.28 103.14 125.69 97.69
  Z
  M 196.16 196.67
  Q 196.29 176.57 196.28 155.94
  Q 196.28 148.17 194.87 144.25
  C 186.25 120.19 150.80 126.92 150.61 153.00
  Q 150.22 206.61 150.72 283.20
  C 150.78 291.62 152.04 298.54 158.07 303.69
  C 169.01 313.03 184.49 310.89 192.12 299.15
  Q 196.20 292.88 196.23 284.25
  Q 196.29 262.37 196.18 240.60
  A 0.42 0.42 0.0 0 1 196.89 240.30
  C 216.95 259.66 236.51 279.56 256.24 299.25
  Q 261.58 304.58 265.58 306.68
  C 280.58 314.54 296.60 305.59 299.15 289.48
  C 300.99 277.88 294.53 271.77 287.02 264.22
  Q 264.47 241.55 242.20 219.37
  Q 241.43 218.61 242.20 217.84
  Q 266.74 193.38 290.84 169.59
  C 297.01 163.50 300.42 158.11 299.16 149.30
  C 297.39 136.91 285.62 128.61 273.47 129.37
  Q 263.46 129.99 256.05 137.56
  Q 227.05 167.16 197.06 197.05
  Q 196.15 197.95 196.16 196.67
  Z"
/>
<path fill="#002131" d="
  M 196.16 196.67
  Q 196.15 197.95 197.06 197.05
  Q 227.05 167.16 256.05 137.56
  Q 263.46 129.99 273.47 129.37
  C 285.62 128.61 297.39 136.91 299.16 149.30
  C 300.42 158.11 297.01 163.50 290.84 169.59
  Q 266.74 193.38 242.20 217.84
  Q 241.43 218.61 242.20 219.37
  Q 264.47 241.55 287.02 264.22
  C 294.53 271.77 300.99 277.88 299.15 289.48
  C 296.60 305.59 280.58 314.54 265.58 306.68
  Q 261.58 304.58 256.24 299.25
  C 236.51 279.56 216.95 259.66 196.89 240.30
  A 0.42 0.42 0.0 0 0 196.18 240.60
  Q 196.29 262.37 196.23 284.25
  Q 196.20 292.88 192.12 299.15
  C 184.49 310.89 169.01 313.03 158.07 303.69
  C 152.04 298.54 150.78 291.62 150.72 283.20
  Q 150.22 206.61 150.61 153.00
  C 150.80 126.92 186.25 120.19 194.87 144.25
  Q 196.28 148.17 196.28 155.94
  Q 196.29 176.57 196.16 196.67
  Z"
/>
</svg>
