<?xml version="1.0" encoding="UTF-8" standalone="no"?>
<!DOCTYPE svg PUBLIC "-//W3C//DTD SVG 1.1//EN" "http://www.w3.org/Graphics/SVG/1.1/DTD/svg11.dtd">
<svg xmlns="http://www.w3.org/2000/svg" version="1.1" viewBox="0.00 0.00 409.00 370.00">
<g stroke-width="2.00" fill="none" stroke-linecap="butt">
<path stroke="#80867d" vector-effect="non-scaling-stroke" d="
  M 276.64 32.21
  Q 219.93 8.71 160.98 23.02
  C 116.29 33.86 79.69 61.20 55.32 100.32
  C 33.21 135.81 27.29 180.36 35.05 220.97
  Q 42.25 258.62 65.74 288.31
  C 71.03 294.99 75.83 300.74 81.76 306.24
  Q 85.07 309.31 86.26 309.72
  C 92.79 311.93 99.23 306.97 99.23 300.50
  Q 99.29 204.75 99.12 109.00
  C 99.10 101.47 97.61 93.98 105.37 89.61
  C 107.88 88.19 110.60 87.84 113.50 87.84
  Q 201.22 87.66 288.93 87.64
  C 298.43 87.64 305.60 86.72 309.40 95.21
  Q 310.77 98.28 310.77 104.45
  C 310.74 167.87 310.74 231.29 310.73 294.71
  Q 310.73 300.88 310.78 301.28
  C 312.02 310.17 319.95 312.26 326.69 307.18
  Q 331.06 303.89 337.33 296.82
  C 359.47 271.86 371.36 242.81 376.45 210.00
  C 383.01 167.63 370.21 118.32 343.85 84.21
  C 325.96 61.05 304.09 43.59 276.64 32.21"
/>
<path stroke="#80867d" vector-effect="non-scaling-stroke" d="
  M 220.3203 127.1694
  A 8.84 8.84 0.0 0 0 211.4957 118.3140
  L 149.6558 118.2060
  A 8.84 8.84 0.0 0 0 140.8004 127.0306
  L 140.7997 127.4506
  A 8.84 8.84 0.0 0 0 149.6243 136.3060
  L 211.4642 136.4140
  A 8.84 8.84 0.0 0 0 220.3196 127.5894
  L 220.3203 127.1694"
/>
<path stroke="#80867d" vector-effect="non-scaling-stroke" d="
  M 196.18 187.26
  Q 194.31 186.75 192.80 185.19
  Q 181.83 173.79 170.55 162.70
  C 165.63 157.85 161.50 154.34 154.94 156.67
  C 144.41 160.40 143.71 171.47 150.95 178.80
  Q 165.11 193.13 179.38 207.37
  C 190.06 218.02 200.72 218.38 211.81 207.81
  C 222.25 197.86 233.87 185.89 245.13 175.00
  Q 260.16 160.46 274.82 145.55
  C 285.11 135.09 273.66 118.04 259.98 125.16
  Q 257.83 126.28 253.54 130.48
  Q 225.09 158.40 197.08 187.02
  A 0.91 0.90 -59.7 0 1 196.18 187.26"
/>
<path stroke="#80867d" vector-effect="non-scaling-stroke" d="
  M 268.6696 236.8584
  A 8.96 8.96 0.0 0 0 259.6940 227.9141
  L 149.7342 228.1060
  A 8.96 8.96 0.0 0 0 140.7898 237.0816
  L 140.7904 237.3816
  A 8.96 8.96 0.0 0 0 149.7660 246.3259
  L 259.7258 246.1340
  A 8.96 8.96 0.0 0 0 268.6702 237.1584
  L 268.6696 236.8584"
/>
<path stroke="#80867d" vector-effect="non-scaling-stroke" d="
  M 268.48 274.16
  A 8.75 8.75 0.0 0 0 259.73 265.41
  L 149.71 265.41
  A 8.75 8.75 0.0 0 0 140.96 274.16
  L 140.96 274.48
  A 8.75 8.75 0.0 0 0 149.71 283.23
  L 259.73 283.23
  A 8.75 8.75 0.0 0 0 268.48 274.48
  L 268.48 274.16"
/>
<path stroke="#80867d" vector-effect="non-scaling-stroke" d="
  M 136.40 341.90
  C 162.29 353.80 192.02 357.77 220.07 355.40
  C 241.93 353.55 263.45 347.12 283.09 337.34
  C 287.44 335.17 291.03 331.92 290.78 327.00
  C 290.53 322.11 286.67 318.61 281.83 318.59
  Q 279.49 318.59 275.96 320.49
  C 235.15 342.50 182.78 344.13 141.12 323.79
  C 137.01 321.79 131.14 318.18 127.05 318.29
  C 120.89 318.45 117.13 325.79 120.00 331.12
  C 122.68 336.09 131.46 339.63 136.40 341.90"
/>
<path stroke="#80867d" vector-effect="non-scaling-stroke" d="
  M 294.54 61.97
  C 274.69 48.82 250.53 40.55 227.16 36.81
  Q 217.14 35.21 207.26 35.16
  Q 162.71 34.92 123.76 57.35
  Q 114.75 62.53 106.25 68.78
  A 0.57 0.57 0.0 0 0 106.58 69.81
  L 302.75 69.75
  Q 304.03 69.75 303.08 68.82
  Q 299.26 65.09 294.54 61.97"
/>
<path stroke="#80867d" vector-effect="non-scaling-stroke" d="
  M 77.51 99.27
  C 40.19 150.35 40.26 226.55 79.75 276.59
  A 0.30 0.30 0.0 0 0 80.29 276.40
  L 80.51 97.25
  Q 80.51 96.68 80.01 97.00
  Q 78.41 98.05 77.51 99.27"
/>
<path stroke="#80867d" vector-effect="non-scaling-stroke" d="
  M 349.42 243.28
  C 368.33 196.54 361.89 142.28 333.42 100.61
  Q 331.96 98.48 330.06 97.03
  Q 329.42 96.54 329.42 97.25
  L 329.37 275.80
  Q 329.37 278.04 330.87 276.37
  C 339.24 267.09 344.74 254.84 349.42 243.28"
/>
</g>
<path fill="#ffe9c7" d="
  M 0.00 0.00
  L 409.00 0.00
  L 409.00 370.00
  L 0.00 370.00
  L 0.00 0.00
  Z
  M 276.64 32.21
  Q 219.93 8.71 160.98 23.02
  C 116.29 33.86 79.69 61.20 55.32 100.32
  C 33.21 135.81 27.29 180.36 35.05 220.97
  Q 42.25 258.62 65.74 288.31
  C 71.03 294.99 75.83 300.74 81.76 306.24
  Q 85.07 309.31 86.26 309.72
  C 92.79 311.93 99.23 306.97 99.23 300.50
  Q 99.29 204.75 99.12 109.00
  C 99.10 101.47 97.61 93.98 105.37 89.61
  C 107.88 88.19 110.60 87.84 113.50 87.84
  Q 201.22 87.66 288.93 87.64
  C 298.43 87.64 305.60 86.72 309.40 95.21
  Q 310.77 98.28 310.77 104.45
  C 310.74 167.87 310.74 231.29 310.73 294.71
  Q 310.73 300.88 310.78 301.28
  C 312.02 310.17 319.95 312.26 326.69 307.18
  Q 331.06 303.89 337.33 296.82
  C 359.47 271.86 371.36 242.81 376.45 210.00
  C 383.01 167.63 370.21 118.32 343.85 84.21
  C 325.96 61.05 304.09 43.59 276.64 32.21
  Z
  M 220.3203 127.1694
  A 8.84 8.84 0.0 0 0 211.4957 118.3140
  L 149.6558 118.2060
  A 8.84 8.84 0.0 0 0 140.8004 127.0306
  L 140.7997 127.4506
  A 8.84 8.84 0.0 0 0 149.6243 136.3060
  L 211.4642 136.4140
  A 8.84 8.84 0.0 0 0 220.3196 127.5894
  L 220.3203 127.1694
  Z
  M 196.18 187.26
  Q 194.31 186.75 192.80 185.19
  Q 181.83 173.79 170.55 162.70
  C 165.63 157.85 161.50 154.34 154.94 156.67
  C 144.41 160.40 143.71 171.47 150.95 178.80
  Q 165.11 193.13 179.38 207.37
  C 190.06 218.02 200.72 218.38 211.81 207.81
  C 222.25 197.86 233.87 185.89 245.13 175.00
  Q 260.16 160.46 274.82 145.55
  C 285.11 135.09 273.66 118.04 259.98 125.16
  Q 257.83 126.28 253.54 130.48
  Q 225.09 158.40 197.08 187.02
  A 0.91 0.90 -59.7 0 1 196.18 187.26
  Z
  M 268.6696 236.8584
  A 8.96 8.96 0.0 0 0 259.6940 227.9141
  L 149.7342 228.1060
  A 8.96 8.96 0.0 0 0 140.7898 237.0816
  L 140.7904 237.3816
  A 8.96 8.96 0.0 0 0 149.7660 246.3259
  L 259.7258 246.1340
  A 8.96 8.96 0.0 0 0 268.6702 237.1584
  L 268.6696 236.8584
  Z
  M 268.48 274.16
  A 8.75 8.75 0.0 0 0 259.73 265.41
  L 149.71 265.41
  A 8.75 8.75 0.0 0 0 140.96 274.16
  L 140.96 274.48
  A 8.75 8.75 0.0 0 0 149.71 283.23
  L 259.73 283.23
  A 8.75 8.75 0.0 0 0 268.48 274.48
  L 268.48 274.16
  Z
  M 136.40 341.90
  C 162.29 353.80 192.02 357.77 220.07 355.40
  C 241.93 353.55 263.45 347.12 283.09 337.34
  C 287.44 335.17 291.03 331.92 290.78 327.00
  C 290.53 322.11 286.67 318.61 281.83 318.59
  Q 279.49 318.59 275.96 320.49
  C 235.15 342.50 182.78 344.13 141.12 323.79
  C 137.01 321.79 131.14 318.18 127.05 318.29
  C 120.89 318.45 117.13 325.79 120.00 331.12
  C 122.68 336.09 131.46 339.63 136.40 341.90
  Z"
/>
<path fill="#002233" d="
  M 276.64 32.21
  C 304.09 43.59 325.96 61.05 343.85 84.21
  C 370.21 118.32 383.01 167.63 376.45 210.00
  C 371.36 242.81 359.47 271.86 337.33 296.82
  Q 331.06 303.89 326.69 307.18
  C 319.95 312.26 312.02 310.17 310.78 301.28
  Q 310.73 300.88 310.73 294.71
  C 310.74 231.29 310.74 167.87 310.77 104.45
  Q 310.77 98.28 309.40 95.21
  C 305.60 86.72 298.43 87.64 288.93 87.64
  Q 201.22 87.66 113.50 87.84
  C 110.60 87.84 107.88 88.19 105.37 89.61
  C 97.61 93.98 99.10 101.47 99.12 109.00
  Q 99.29 204.75 99.23 300.50
  C 99.23 306.97 92.79 311.93 86.26 309.72
  Q 85.07 309.31 81.76 306.24
  C 75.83 300.74 71.03 294.99 65.74 288.31
  Q 42.25 258.62 35.05 220.97
  C 27.29 180.36 33.21 135.81 55.32 100.32
  C 79.69 61.20 116.29 33.86 160.98 23.02
  Q 219.93 8.71 276.64 32.21
  Z
  M 294.54 61.97
  C 274.69 48.82 250.53 40.55 227.16 36.81
  Q 217.14 35.21 207.26 35.16
  Q 162.71 34.92 123.76 57.35
  Q 114.75 62.53 106.25 68.78
  A 0.57 0.57 0.0 0 0 106.58 69.81
  L 302.75 69.75
  Q 304.03 69.75 303.08 68.82
  Q 299.26 65.09 294.54 61.97
  Z
  M 77.51 99.27
  C 40.19 150.35 40.26 226.55 79.75 276.59
  A 0.30 0.30 0.0 0 0 80.29 276.40
  L 80.51 97.25
  Q 80.51 96.68 80.01 97.00
  Q 78.41 98.05 77.51 99.27
  Z
  M 349.42 243.28
  C 368.33 196.54 361.89 142.28 333.42 100.61
  Q 331.96 98.48 330.06 97.03
  Q 329.42 96.54 329.42 97.25
  L 329.37 275.80
  Q 329.37 278.04 330.87 276.37
  C 339.24 267.09 344.74 254.84 349.42 243.28
  Z"
/>
<path fill="#ffe9c7" d="
  M 227.16 36.81
  C 250.53 40.55 274.69 48.82 294.54 61.97
  Q 299.26 65.09 303.08 68.82
  Q 304.03 69.75 302.75 69.75
  L 106.58 69.81
  A 0.57 0.57 0.0 0 1 106.25 68.78
  Q 114.75 62.53 123.76 57.35
  Q 162.71 34.92 207.26 35.16
  Q 217.14 35.21 227.16 36.81
  Z"
/>
<path fill="#ffe9c7" d="
  M 79.75 276.59
  C 40.26 226.55 40.19 150.35 77.51 99.27
  Q 78.41 98.05 80.01 97.00
  Q 80.51 96.68 80.51 97.25
  L 80.29 276.40
  A 0.30 0.30 0.0 0 1 79.75 276.59
  Z"
/>
<path fill="#ffe9c7" d="
  M 349.42 243.28
  C 344.74 254.84 339.24 267.09 330.87 276.37
  Q 329.37 278.04 329.37 275.80
  L 329.42 97.25
  Q 329.42 96.54 330.06 97.03
  Q 331.96 98.48 333.42 100.61
  C 361.89 142.28 368.33 196.54 349.42 243.28
  Z"
/>
<rect fill="#002233" x="-39.76" y="-9.05" transform="translate(180.56,127.31) rotate(0.1)" width="79.52" height="18.10" rx="8.84"/>
<path fill="#002233" d="
  M 196.18 187.26
  A 0.91 0.90 -59.7 0 0 197.08 187.02
  Q 225.09 158.40 253.54 130.48
  Q 257.83 126.28 259.98 125.16
  C 273.66 118.04 285.11 135.09 274.82 145.55
  Q 260.16 160.46 245.13 175.00
  C 233.87 185.89 222.25 197.86 211.81 207.81
  C 200.72 218.38 190.06 218.02 179.38 207.37
  Q 165.11 193.13 150.95 178.80
  C 143.71 171.47 144.41 160.40 154.94 156.67
  C 161.50 154.34 165.63 157.85 170.55 162.70
  Q 181.83 173.79 192.80 185.19
  Q 194.31 186.75 196.18 187.26
  Z"
/>
<rect fill="#002233" x="-63.94" y="-9.11" transform="translate(204.73,237.12) rotate(-0.1)" width="127.88" height="18.22" rx="8.96"/>
<rect fill="#002233" x="140.96" y="265.41" width="127.52" height="17.82" rx="8.75"/>
<path fill="#002233" d="
  M 136.40 341.90
  C 131.46 339.63 122.68 336.09 120.00 331.12
  C 117.13 325.79 120.89 318.45 127.05 318.29
  C 131.14 318.18 137.01 321.79 141.12 323.79
  C 182.78 344.13 235.15 342.50 275.96 320.49
  Q 279.49 318.59 281.83 318.59
  C 286.67 318.61 290.53 322.11 290.78 327.00
  C 291.03 331.92 287.44 335.17 283.09 337.34
  C 263.45 347.12 241.93 353.55 220.07 355.40
  C 192.02 357.77 162.29 353.80 136.40 341.90
  Z"
/>
</svg>
